<svg xmlns="http://www.w3.org/2000/svg" viewBox="0 0 64 64">
  <defs>
    <linearGradient id="g" x1="0" y1="0" x2="1" y2="1">
      <stop offset="0%" stop-color="#0D2B45"/>
      <stop offset="100%" stop-color="#16A3A6"/>
    </linearGradient>
  </defs>
  <!-- Fish body curving into G shape -->
  <path d="M32 4C18 4 8 14 8 28c0 10 6 18 16 22l0-8c-6-3-10-9-10-14
    0-10 8-18 18-18 6 0 11 3 14 7l-6 0c-2-2-5-3-8-3-8 0-14 6-14 14
    s6 14 14 14c5 0 10-3 12-7H34v-7h20c0 16-10 26-22 26S6 44 6 28
    C6 12 18 2 32 2c8 0 16 4 20 10l-6 4C43 10 38 6 32 6Z"
    fill="url(#g)"/>
  <!-- Fish eye -->
  <circle cx="28" cy="22" r="2.5" fill="url(#g)"/>
  <!-- Fish tail/fin -->
  <path d="M48 10c-2 4-2 8 0 12 2-4 4-8 2-12Z" fill="#16A3A6" opacity="0.8"/>
  <!-- Wave lines -->
  <path d="M12 52c4-2 8-2 12 0s8 2 12 0 8-2 12 0" fill="none" stroke="#16A3A6" stroke-width="2" stroke-linecap="round" opacity="0.5"/>
  <path d="M16 57c3-2 6-2 9 0s6 2 9 0 6-2 9 0" fill="none" stroke="#16A3A6" stroke-width="1.5" stroke-linecap="round" opacity="0.3"/>
</svg>
