<svg xmlns="http://www.w3.org/2000/svg" viewBox="0 0 360 120">
  <!-- Circular logo icon -->
  <g transform="translate(10, 5) scale(1.7)">
    <!-- Outer C/G shape -->
    <path d="M32 4C18 4 8 14 8 28c0 10 6 18 16 22l0-8c-6-3-10-9-10-14
      0-10 8-18 18-18 6 0 11 3 14 7l-6 0c-2-2-5-3-8-3-8 0-14 6-14 14
      s6 14 14 14c5 0 10-3 12-7H34v-7h20c0 16-10 26-22 26S6 44 6 28
      C6 12 18 2 32 2c8 0 16 4 20 10l-6 4C43 10 38 6 32 6Z"
      fill="white"/>
    <!-- Fish eye -->
    <circle cx="28" cy="22" r="2.5" fill="white"/>
    <!-- Fish tail/fin -->
    <path d="M48 10c-2 4-2 8 0 12 2-4 4-8 2-12Z" fill="white" opacity="0.8"/>
    <!-- Wave lines -->
    <path d="M12 52c4-2 8-2 12 0s8 2 12 0 8-2 12 0" fill="none" stroke="white" stroke-width="2" stroke-linecap="round" opacity="0.6"/>
    <path d="M16 57c3-2 6-2 9 0s6 2 9 0 6-2 9 0" fill="none" stroke="white" stroke-width="1.5" stroke-linecap="round" opacity="0.35"/>
  </g>

  <!-- GoFish text -->
  <text x="128" y="58" font-family="'DM Sans', system-ui, sans-serif" font-weight="700" font-size="42" fill="white" letter-spacing="-1">GoFish</text>

  <!-- Tagline -->
  <text x="130" y="85" font-family="'DM Sans', system-ui, sans-serif" font-weight="600" font-size="14" letter-spacing="3.5">
    <tspan fill="rgba(255,255,255,0.7)">CAST YOUR </tspan><tspan fill="#16A3A6">FAITH.</tspan>
  </text>
</svg>
